<mxfile host="app.diagrams.net" modified="2022-12-19T00:10:16.261Z" agent="5.0 (Windows NT 10.0; Win64; x64) AppleWebKit/537.36 (KHTML, like Gecko) Chrome/108.0.0.0 Safari/537.36" etag="86WfdzoNhJb-2_muVs-V" version="20.7.4" type="github">
  <diagram id="nnNCrpU9SikI81fIveM0" name="Page-1">
    <mxGraphModel dx="954" dy="1569" grid="1" gridSize="10" guides="1" tooltips="1" connect="1" arrows="1" fold="1" page="1" pageScale="1" pageWidth="850" pageHeight="1100" math="0" shadow="0">
      <root>
        <mxCell id="0" />
        <mxCell id="1" parent="0" />
        <mxCell id="6xVDVRpmIRwO7unLZArh-1" value="" style="rhombus;whiteSpace=wrap;html=1;" vertex="1" parent="1">
          <mxGeometry x="100" y="-340" width="80" height="80" as="geometry" />
        </mxCell>
        <mxCell id="6xVDVRpmIRwO7unLZArh-2" value="User" style="rounded=1;whiteSpace=wrap;html=1;" vertex="1" parent="1">
          <mxGeometry x="80" y="-460" width="120" height="60" as="geometry" />
        </mxCell>
        <mxCell id="6xVDVRpmIRwO7unLZArh-3" value="" style="endArrow=classic;html=1;rounded=0;entryX=0.5;entryY=0;entryDx=0;entryDy=0;exitX=0.5;exitY=1;exitDx=0;exitDy=0;" edge="1" parent="1" source="6xVDVRpmIRwO7unLZArh-2" target="6xVDVRpmIRwO7unLZArh-1">
          <mxGeometry width="50" height="50" relative="1" as="geometry">
            <mxPoint x="120" y="-350" as="sourcePoint" />
            <mxPoint x="170" y="-400" as="targetPoint" />
          </mxGeometry>
        </mxCell>
      </root>
    </mxGraphModel>
  </diagram>
</mxfile>
